REM DIRINDEX 1\2\3,1\2\4,1\2\5,1\2\6
REM DIRNAME folder01,folder02,folder03,folder04,folder05,folder06
TITLE ""
FILE "171 171.mp3" MP3
  TRACK 01 AUDIO
    TITLE "0:"
    INDEX 01 00:00:00
  TRACK 02 AUDIO
    TITLE "3:cjc157_6226"
    INDEX 01 00:00:11
  TRACK 03 AUDIO
    TITLE "0:"
    INDEX 01 00:01:36
  TRACK 04 AUDIO
    TITLE "4:cjc157_6227"
    INDEX 01 00:02:02
  TRACK 05 AUDIO
    TITLE "0:"
    INDEX 01 00:05:30
  TRACK 06 AUDIO
    TITLE "5:cjc157_6228"
    INDEX 01 00:06:04
  TRACK 07 AUDIO
    TITLE "0:"
    INDEX 01 00:10:33
  TRACK 08 AUDIO
    TITLE "3:cjc157_6229"
    INDEX 01 00:11:07
  TRACK 09 AUDIO
    TITLE "0:"
    INDEX 01 00:12:18
  TRACK 10 AUDIO
    TITLE "4:cjc157_6230"
    INDEX 01 00:12:61
  TRACK 11 AUDIO
    TITLE "0:"
    INDEX 01 00:16:20
  TRACK 12 AUDIO
    TITLE "5:cjc157_6231"
    INDEX 01 00:16:65
  TRACK 13 AUDIO
    TITLE "0:"
    INDEX 01 00:22:01
  TRACK 14 AUDIO
    TITLE "3:cjc157_6232"
    INDEX 01 00:22:54
  TRACK 15 AUDIO
    TITLE "0:"
    INDEX 01 00:24:00
  TRACK 16 AUDIO
    TITLE "4:cjc157_6233"
    INDEX 01 00:24:51
  TRACK 17 AUDIO
    TITLE "0:"
    INDEX 01 00:25:68
  TRACK 18 AUDIO
    TITLE "5:cjc157_6234"
    INDEX 01 00:26:38
  TRACK 19 AUDIO
    TITLE "0:"
    INDEX 01 00:30:01
  TRACK 20 AUDIO
    TITLE "3:cjc157_6235"
    INDEX 01 00:30:46
  TRACK 21 AUDIO
    TITLE "0:"
    INDEX 01 00:31:55
  TRACK 22 AUDIO
    TITLE "4:cjc157_6236"
    INDEX 01 00:32:21
  TRACK 23 AUDIO
    TITLE "0:"
    INDEX 01 00:33:48
  TRACK 24 AUDIO
    TITLE "5:cjc157_6237"
    INDEX 01 00:34:16
  TRACK 25 AUDIO
    TITLE "0:"
    INDEX 01 00:37:01
  TRACK 26 AUDIO
    TITLE "5:cjc157_6238"
    INDEX 01 00:37:48
  TRACK 27 AUDIO
    TITLE "0:"
    INDEX 01 00:40:72
  TRACK 28 AUDIO
    TITLE "3:cjc157_6239"
    INDEX 01 00:41:45
  TRACK 29 AUDIO
    TITLE "0:"
    INDEX 01 00:42:57
  TRACK 30 AUDIO
    TITLE "4:cjc157_6240"
    INDEX 01 00:43:31
  TRACK 31 AUDIO
    TITLE "0:"
    INDEX 01 00:44:67
  TRACK 32 AUDIO
    TITLE "5:cjc157_6241"
    INDEX 01 00:45:37
  TRACK 33 AUDIO
    TITLE "0:"
    INDEX 01 00:49:31
  TRACK 34 AUDIO
    TITLE "3:cjc157_6242"
    INDEX 01 00:50:05
  TRACK 35 AUDIO
    TITLE "0:"
    INDEX 01 00:51:20
  TRACK 36 AUDIO
    TITLE "4:cjc157_6243"
    INDEX 01 00:51:62
  TRACK 37 AUDIO
    TITLE "0:"
    INDEX 01 00:53:21
  TRACK 38 AUDIO
    TITLE "5:cjc157_6244"
    INDEX 01 00:53:70
  TRACK 39 AUDIO
    TITLE "0:"
    INDEX 01 00:58:05
  TRACK 40 AUDIO
    TITLE "3:cjc157_6245"
    INDEX 01 00:58:44
  TRACK 41 AUDIO
    TITLE "0:"
    INDEX 01 00:59:47
  TRACK 42 AUDIO
    TITLE "4:cjc157_6246"
    INDEX 01 01:00:17
  TRACK 43 AUDIO
    TITLE "0:"
    INDEX 01 01:01:36
  TRACK 44 AUDIO
    TITLE "5:cjc157_6247"
    INDEX 01 01:02:16
  TRACK 45 AUDIO
    TITLE "0:"
    INDEX 01 01:04:35
  TRACK 46 AUDIO
    TITLE "3:cjc157_6248"
    INDEX 01 01:05:09
  TRACK 47 AUDIO
    TITLE "0:"
    INDEX 01 01:06:18
  TRACK 48 AUDIO
    TITLE "4:cjc157_6249"
    INDEX 01 01:06:67
  TRACK 49 AUDIO
    TITLE "0:"
    INDEX 01 01:08:13
  TRACK 50 AUDIO
    TITLE "5:cjc157_6250"
    INDEX 01 01:08:64
  TRACK 51 AUDIO
    TITLE "0:"
    INDEX 01 01:11:64
  TRACK 52 AUDIO
    TITLE "3:cjc157_6251"
    INDEX 01 01:12:36
  TRACK 53 AUDIO
    TITLE "0:"
    INDEX 01 01:13:61
  TRACK 54 AUDIO
    TITLE "4:cjc157_6252"
    INDEX 01 01:14:37
  TRACK 55 AUDIO
    TITLE "0:"
    INDEX 01 01:15:66
  TRACK 56 AUDIO
    TITLE "5:cjc157_6253"
    INDEX 01 01:16:36
  TRACK 57 AUDIO
    TITLE "0:"
    INDEX 01 01:21:02
  TRACK 58 AUDIO
    TITLE "3:cjc157_6254"
    INDEX 01 01:21:49
  TRACK 59 AUDIO
    TITLE "0:"
    INDEX 01 01:23:26
  TRACK 60 AUDIO
    TITLE "4:cjc157_6255"
    INDEX 01 01:23:71
  TRACK 61 AUDIO
    TITLE "0:"
    INDEX 01 01:25:21
  TRACK 62 AUDIO
    TITLE "5:cjc157_6256"
    INDEX 01 01:25:66
  TRACK 63 AUDIO
    TITLE "0:"
    INDEX 01 01:31:10
